{"accessors":[{"bufferView":0,"componentType":5125,"count":51114,"max":[17619.0],"min":[0.0],"type":"SCALAR"},{"bufferView":1,"componentType":5126,"count":17620,"max":[282.6327209472656,328.083984375,681.4114379882813],"min":[-483.5733947753906,244.42257690429688,-200.54873657226563],"type":"VEC3"},{"bufferView":2,"componentType":5126,"count":17620,"max":[0.6549021005630493,1.0,0.7333334684371948],"min":[-0.7019608020782471,0.5058825016021729,-0.6549019813537598],"type":"VEC3"},{"bufferView":3,"componentType":5126,"count":17620,"max":[1.0,1.0],"min":[0.0,0.0],"type":"VEC2"},{"bufferView":4,"componentType":5125,"count":0,"max":[-2147483648.0],"min":[2147483648.0],"type":"SCALAR"},{"bufferView":5,"componentType":5126,"count":3106,"max":[282.6327209472656,324.80316162109377,646.5860595703125],"min":[-474.4883728027344,249.3438262939453,-197.244140625],"type":"VEC3"},{"bufferView":6,"componentType":5125,"count":0,"max":[-2147483648.0],"min":[2147483648.0],"type":"SCALAR"},{"bufferView":7,"componentType":5126,"count":741,"max":[268.6676940917969,311.6797790527344,667.9262084960938],"min":[-470.0835876464844,246.06298828125,-147.6885528564453],"type":"VEC3"}],"asset":{"generator":"SimLab GLTF","version":"2.0"},"bufferViews":[{"buffer":0,"byteLength":204456,"target":34963},{"buffer":0,"byteLength":211440,"byteOffset":204456,"byteStride":12,"target":34962},{"buffer":0,"byteLength":211440,"byteOffset":415896,"byteStride":12,"target":34962},{"buffer":0,"byteLength":140960,"byteOffset":627336,"byteStride":8,"target":34962},{"buffer":0,"byteLength":0,"byteOffset":768296,"target":34963},{"buffer":0,"byteLength":37272,"byteOffset":768296,"byteStride":12,"target":34962},{"buffer":0,"byteLength":0,"byteOffset":805568,"target":34963},{"buffer":0,"byteLength":8892,"byteOffset":805568,"byteStride":12,"target":34962}],"buffers":[{"byteLength":814460,"uri":"topo 1.bin"}],"materials":[{"alphaMode":"MASK","doubleSided":true,"pbrMetallicRoughness":{"baseColorFactor":[0.49803924560546877,0.49803924560546877,0.49803924560546877,1.0],"metallicFactor":0.0}},{"alphaMode":"MASK","doubleSided":true,"pbrMetallicRoughness":{"baseColorFactor":[0.0,0.0,0.0,1.0],"metallicFactor":0.0}}],"meshes":[{"primitives":[{"attributes":{"NORMAL":2,"POSITION":1,"TEXCOORD_0":3},"indices":0,"material":0,"mode":4}]},{"primitives":[{"attributes":{"POSITION":5},"indices":4,"material":1,"mode":4}]},{"primitives":[{"attributes":{"POSITION":7},"indices":6,"material":1,"mode":4}]}],"nodes":[{"children":[1,2],"matrix":[1.0,0.0,0.0,0.0,0.0,4.4896593387466768e-11,-1.0,0.0,0.0,1.0,4.4896593387466768e-11,0.0,0.0,0.0,0.0,1.0]},{"name":"Camera~13","rotation":[-0.7071067690849304,0.0,0.0,-0.7071067690849304],"translation":[-30.62335777282715,-1148.5693359375,87.25]},{"name":"Assembly~10","children":[3],"rotation":[0.0,0.0,0.0,-1.0],"scale":[0.009999999776482582,0.009999999776482582,0.009999999776482582]},{"name":"Topography (1)","children":[4],"rotation":[-0.7071067690849304,0.0,0.0,-0.7071067690849304],"scale":[30.479999542236329,30.479999542236329,30.479999542236329]},{"name":"Surface (1)","children":[5,6,7],"rotation":[0.0,0.0,0.0,-1.0]},{"mesh":0,"rotation":[0.0,0.0,0.0,-1.0]},{"mesh":1,"rotation":[0.0,0.0,0.0,-1.0]},{"mesh":2,"rotation":[0.0,0.0,0.0,-1.0]}],"samplers":[{"wrapS":10497,"wrapT":10497}],"scene":0,"scenes":[{"nodes":[0]}]}